{
.appVersion = "3227";
.formatVersion = 3;
DisplayStrings = (
"HAMBURGEFONTSIV
HHTHH OOTOO OOTTOO TiTITITIT
hamburgeffontsiv
nntnntntntn oototootooto
oossoo nnssnn oosoo nnsnn nnsnsnoonsos
HHSHH OOSOO SSsssSS
",
"Rima Bonniest Derniere Dormouse Undemonstrative Ehm Effets Onderuit Heimi Vientiane Samba Subahdar Ventures Manie Suggerendo Read Unnative Utvisning Disguised Are Freebees Atterrir Needed Megmutattad Martha Aumentata Fimmtu Irrigator Eastman Annus Shags Gomuti Unreaved Minimum Munar Underhonest Tagi Unobtained Sattui Mouse Stomste Stooging Tibiotarsi Oaters Mastoid Montare Bravo Truss Astounds Daumen Ministrarum Embrasses Trafnidiaeth Genas Endormie Gaufers Afront Saguin Oof Meende Thongs Observes Dehorner Oni Voina Tade Barnet Maistu Steining Margine Undirheima Buttes Movie Omringer Daarbinnen Ferreter Gibbsite Remediation Negatives Renminbi Rearisen Meist Dus Eundem Droga Feite Graeme Ribben Avenges Greed Barbatus Reboot Hoorahed Refringing Snigmorder Obtenir Manure Hinters Artiste Trots Rivers Inamoratas Duad Tristesse Trate Oso Madmen Obsignasti Evanished Har Disunities Matiness Roussettes Goodie Detesta Bons Foggage Differ Indues Information Misfeaturing Indomitis Detesti Northmen Signa Venging Feestdag Brandish Regn Snaha Teered Nain Stevensi Tevens Festet Affrightment Servandum Duumvirs Aventring Varsinainen Aaron Menom Stationnement Darga Obviam Sheading Been Humbugs Stagnates Testedet Dudas Nimbed Ovvero Groten Sevruga Soverommet Diett Intorsion Ensutge Reinfused Magistratum Agi Maggiormente Vagrom Anders Madonna Verstuurd Overgang Standi Abbado Verminates Uteri Smiesne Douanier Graafian Dobbs Veggene Isidore Annata Sterna Surmistress Monat Ite Borda Argenter Benda Sodavand Furthers Gaggers Refreshment Mars Oogonia Vadit Sudsier Graham Nba Mudding Infine Dennis Hvori",

glyphs = (
{
color = 5;
glyphname = A;
lastChange = "2023-11-15 20:28:22 +0000";
layers = (
{
anchors = (
{
name = bottom;
pos = (332,0);
},
{
name = ogonek;
pos = (561,10);
},
{
name = top;
pos = (332,700);
}
);
hints = (
{
horizontal = 1;
place = (652,72);
type = Stem;
},
{
horizontal = 1;
place = (313,73);
type = Stem;
},
{
horizontal = 1;
place = (-24,21);
target = up;
type = BottomGhost;
},
{
place = (410,91);
type = Stem;
},
{
place = (73,90);
type = Stem;
}
);
layerId = "2F065738-4B59-43EB-A5F2-FD5F277958EA";
shapes = (
{
closed = 1;
nodes = (
(185,-11,o),
(209,9,o),
(209,51,cs),
(209,233,ls),
(209,288,o),
(239,306,o),
(330,306,cs),
(374,306,o),
(433,325,o),
(457,347,c),
(457,51,ls),
(457,11,o),
(483,-11,o),
(529,-11,cs),
(576,-11,o),
(601,10,o),
(601,51,cs),
(601,502,ls),
(601,650,o),
(522,711,o),
(330,711,cs),
(140,711,o),
(65,652,o),
(65,502,cs),
(65,55,ls),
(65,9,o),
(87,-11,o),
(137,-11,cs)
);
},
{
closed = 1;
nodes = (
(207,414,o),
(209,450,o),
(209,502,cs),
(209,568,o),
(246,597,o),
(330,597,cs),
(447,597,o),
(474,579,o),
(474,502,cs),
(474,439,o),
(451,427,o),
(330,427,cs),
(273,427,o),
(224,414,o),
(203,393,c)
);
}
);
width = 666;
}
);
metricRight = "=|";
note = A;
unicode = 65;
},
{
color = 4;
glyphname = B;
lastChange = "2023-11-15 20:28:52 +0000";
layers = (
{
anchors = (
{
name = bottom;
pos = (338,0);
},
{
name = center;
pos = (338,350);
},
{
name = top;
pos = (338,700);
}
);
hints = (
{
horizontal = 1;
place = (653,72);
type = Stem;
},
{
horizontal = 1;
place = (315,72);
type = Stem;
},
{
horizontal = 1;
place = (-24,72);
type = Stem;
},
{
place = (389,90);
type = Stem;
},
{
place = (51,90);
type = Stem;
}
);
layerId = "2F065738-4B59-43EB-A5F2-FD5F277958EA";
shapes = (
{
closed = 1;
nodes = (
(337,0,ls),
(497,0,o),
(599,86,o),
(599,220,cs),
(599,297,o),
(581,338,o),
(531,373,c),
(559,394,o),
(584,456,o),
(584,505,cs),
(584,651,o),
(512,711,o),
(337,711,cs),
(139,711,o),
(65,654,o),
(65,502,cs),
(65,53,ls),
(65,22,o),
(84,0,o),
(110,0,cs)
);
},
{
closed = 1;
nodes = (
(200,200,ls),
(200,294,o),
(229,319,o),
(337,319,cs),
(447,319,o),
(473,300,o),
(473,220,cs),
(473,135,o),
(449,117,o),
(337,117,cs),
(200,117,l)
);
},
{
closed = 1;
nodes = (
(200,420,o),
(201,434,o),
(201,515,cs),
(201,574,o),
(243,600,o),
(337,600,cs),
(422,600,o),
(458,572,o),
(458,505,cs),
(458,443,o),
(437,430,o),
(337,430,cs),
(269,430,o),
(215,417,o),
(194,396,c)
);
}
);
width = 653;
}
);
metricLeft = "=A";
metricRight = O;
note = B;
unicode = 66;
},
{
glyphname = D;
lastChange = "2023-11-09 14:15:06 +0000";
layers = (
{
anchors = (
{
name = bottom;
pos = (352,0);
},
{
name = center;
pos = (352,350);
},
{
name = top;
pos = (352,700);
}
);
hints = (
{
horizontal = 1;
place = (652,72);
type = Stem;
},
{
horizontal = 1;
place = (-25,73);
type = Stem;
},
{
place = (389,90);
type = Stem;
},
{
place = (51,90);
type = Stem;
}
);
layerId = "2F065738-4B59-43EB-A5F2-FD5F277958EA";
shapes = (
{
closed = 1;
nodes = (
(318,0,ls),
(534,0,o),
(620,100,o),
(620,350,cs),
(620,599,o),
(534,700,o),
(321,700,cs),
(118,700,ls),
(90,700,o),
(70,684,o),
(70,662,cs),
(70,38,ls),
(70,16,o),
(90,0,o),
(118,0,cs)
);
},
{
closed = 1;
nodes = (
(220,568,l),
(321,568,ls),
(448,568,o),
(471,534,o),
(471,350,cs),
(471,163,o),
(449,131,o),
(321,131,cs),
(220,131,l)
);
}
);
width = 674;
}
);
metricLeft = H;
metricRight = O;
note = D;
unicode = 68;
},
{
color = 4;
glyphname = E;
lastChange = "2023-11-15 20:30:16 +0000";
layers = (
{
anchors = (
{
name = bottom;
pos = (304,0);
},
{
name = ogonek;
pos = (515,10);
},
{
name = top;
pos = (331,700);
},
{
name = topleft;
pos = (59,700);
}
);
hints = (
{
horizontal = 1;
place = (652,72);
type = Stem;
},
{
horizontal = 1;
place = (314,72);
type = Stem;
},
{
horizontal = 1;
place = (-25,71);
type = Stem;
},
{
place = (51,90);
type = Stem;
}
);
layerId = "2F065738-4B59-43EB-A5F2-FD5F277958EA";
shapes = (
{
closed = 1;
nodes = (
(460,0,ls),
(502,0,o),
(520,19,o),
(520,64,cs),
(520,110,o),
(501,132,o),
(460,132,cs),
(350,132,ls),
(217,132,o),
(204,139,o),
(204,211,cs),
(204,272,o),
(227,291,o),
(302,291,cs),
(419,291,ls),
(447,291,o),
(468,319,o),
(468,357,cs),
(468,395,o),
(448,421,o),
(419,421,cs),
(290,421,ls),
(256,421,o),
(219,409,o),
(196,390,c),
(200,417,o),
(204,470,o),
(204,501,cs),
(204,565,o),
(211,568,o),
(361,568,cs),
(460,568,ls),
(496,568,o),
(520,594,o),
(520,633,cs),
(520,673,o),
(496,700,o),
(460,700,cs),
(274,700,ls),
(145,700,o),
(70,636,o),
(70,525,cs),
(70,140,ls),
(70,50,o),
(122,0,o),
(217,0,cs)
);
}
);
width = 574;
}
);
metricLeft = H;
metricRight = O;
note = E;
unicode = 69;
},
{
color = 4;
glyphname = F;
lastChange = "2023-11-15 20:30:24 +0000";
layers = (
{
anchors = (
{
name = bottom;
pos = (310,0);
},
{
name = top;
pos = (310,700);
}
);
hints = (
{
horizontal = 1;
place = (652,72);
type = Stem;
},
{
horizontal = 1;
place = (313,72);
type = Stem;
},
{
horizontal = 1;
place = (-24,21);
target = up;
type = BottomGhost;
},
{
place = (51,89);
type = Stem;
}
);
layerId = "2F065738-4B59-43EB-A5F2-FD5F277958EA";
shapes = (
{
closed = 1;
nodes = (
(192,-11,o),
(213,8,o),
(214,54,cs),
(214,204,ls),
(214,274,o),
(235,293,o),
(311,293,cs),
(442,293,ls),
(470,293,o),
(491,320,o),
(491,357,cs),
(491,395,o),
(471,421,o),
(442,421,cs),
(299,421,ls),
(265,421,o),
(228,409,o),
(205,390,c),
(210,430,o),
(213,478,o),
(213,501,cs),
(213,560,o),
(231,568,o),
(370,568,cs),
(469,568,ls),
(504,568,o),
(529,596,o),
(529,633,cs),
(529,672,o),
(504,700,o),
(469,700,cs),
(274,700,ls),
(145,700,o),
(70,636,o),
(70,525,cs),
(70,54,ls),
(71,10,o),
(95,-11,o),
(142,-11,cs)
);
}
);
width = 583;
}
);
metricLeft = H;
metricRight = O;
note = F;
unicode = 70;
},
{
color = 4;
glyphname = G;
lastChange = "2023-11-15 20:35:24 +0000";
layers = (
{
anchors = (
{
name = bottom;
pos = (318,0);
},
{
name = top;
pos = (318,700);
}
);
background = {
shapes = (
{
closed = 0;
nodes = (
(443,515,ls),
(443,470,o),
(475,453,o),
(515,453,cs),
(567,453,o),
(587,478,o),
(587,515,cs)
);
}
);
};
hints = (
{
horizontal = 1;
place = (653,71);
type = Stem;
},
{
horizontal = 1;
place = (314,72);
type = Stem;
},
{
horizontal = 1;
place = (-24,72);
type = Stem;
},
{
place = (389,90);
type = Stem;
},
{
place = (51,90);
type = Stem;
}
);
layerId = "2F065738-4B59-43EB-A5F2-FD5F277958EA";
shapes = (
{
closed = 1;
nodes = (
(498,-11,o),
(592,91,o),
(592,277,cs),
(592,377,o),
(586,386,o),
(521,386,cs),
(359,386,ls),
(325,386,o),
(305,366,o),
(305,330,cs),
(305,294,o),
(324,275,o),
(359,275,cs),
(458,275,l),
(450,270,o),
(447,258,o),
(447,240,cs),
(447,159,o),
(409,121,o),
(326,121,cs),
(233,121,o),
(202,183,o),
(202,370,cs),
(202,523,o),
(235,579,o),
(326,579,cs),
(396,579,o),
(434,553,o),
(434,506,cs),
(434,466,o),
(460,444,o),
(506,444,cs),
(557,444,o),
(578,468,o),
(578,526,cs),
(578,641,o),
(483,711,o),
(326,711,cs),
(150,711,o),
(54,591,o),
(54,370,cs),
(54,99,o),
(133,-11,o),
(326,-11,cs)
);
}
);
width = 646;
}
);
metricLeft = O;
metricRight = O;
note = G;
unicode = 71;
},
{
color = 5;
glyphname = H;
lastChange = "2023-11-08 20:50:22 +0000";
layers = (
{
hints = (
{
horizontal = 1;
place = (724,-20);
target = down;
type = TopGhost;
},
{
horizontal = 1;
place = (315,71);
type = Stem;
},
{
horizontal = 1;
place = (-24,21);
target = up;
type = BottomGhost;
},
{
place = (389,90);
type = Stem;
},
{
place = (51,90);
type = Stem;
}
);
layerId = "2F065738-4B59-43EB-A5F2-FD5F277958EA";
shapes = (
{
closed = 1;
nodes = (
(193,-11,o),
(214,9,o),
(214,56,cs),
(214,195,ls),
(214,288,o),
(241,314,o),
(335,314,cs),
(400,314,o),
(454,331,o),
(462,355,c),
(462,56,ls),
(462,11,o),
(486,-11,o),
(534,-11,cs),
(585,-11,o),
(606,9,o),
(606,56,cs),
(606,644,ls),
(606,689,o),
(582,711,o),
(534,711,cs),
(483,711,o),
(462,691,o),
(462,644,cs),
(462,442,l),
(353,442,ls),
(279,442,o),
(241,430,o),
(207,396,c),
(212,415,o),
(214,467,o),
(214,544,cs),
(214,644,ls),
(214,689,o),
(190,711,o),
(142,711,cs),
(91,711,o),
(70,691,o),
(70,644,cs),
(70,56,ls),
(70,11,o),
(94,-11,o),
(142,-11,cs)
);
}
);
width = 676;
}
);
metricRight = "=|";
note = H;
unicode = 72;
},
{
color = 5;
glyphname = I;
lastChange = "2023-11-15 20:32:26 +0000";
layers = (
{
anchors = (
{
name = bottom;
pos = (284,0);
},
{
name = ogonek;
pos = (495,10);
},
{
name = top;
pos = (284,700);
},
{
name = topleft;
pos = (39,700);
}
);
hints = (
{
horizontal = 1;
place = (652,72);
type = Stem;
},
{
horizontal = 1;
place = (-24,72);
type = Stem;
},
{
place = (220,90);
type = Stem;
}
);
layerId = "2F065738-4B59-43EB-A5F2-FD5F277958EA";
shapes = (
{
closed = 1;
nodes = (
(478,0,ls),
(523,0,o),
(542,19,o),
(542,62,cs),
(542,104,o),
(523,122,o),
(478,122,cs),
(378,122,l),
(378,515,ls),
(378,562,o),
(374,572,o),
(354,578,c),
(478,578,ls),
(523,578,o),
(542,597,o),
(542,640,cs),
(542,682,o),
(523,700,o),
(478,700,cs),
(127,700,ls),
(87,700,o),
(70,682,o),
(70,640,cs),
(70,597,o),
(87,578,o),
(127,578,cs),
(234,578,l),
(234,122,l),
(127,122,ls),
(87,122,o),
(70,104,o),
(70,62,cs),
(70,19,o),
(87,0,o),
(127,0,cs)
);
}
);
width = 568;
}
);
note = I;
unicode = 73;
},
{
color = 4;
glyphname = M;
lastChange = "2023-11-15 20:28:29 +0000";
layers = (
{
anchors = (
{
name = bottom;
pos = (445,0);
},
{
name = top;
pos = (450,700);
}
);
hints = (
{
horizontal = 1;
place = (652,72);
type = Stem;
},
{
horizontal = 1;
place = (-23,21);
target = up;
type = BottomGhost;
},
{
horizontal = 1;
place = (-24,21);
target = up;
type = BottomGhost;
},
{
place = (727,90);
type = Stem;
},
{
place = (389,90);
type = Stem;
},
{
place = (51,90);
type = Stem;
}
);
layerId = "2F065738-4B59-43EB-A5F2-FD5F277958EA";
shapes = (
{
closed = 1;
nodes = (
(188,-11,o),
(209,9,o),
(209,56,cs),
(209,480,ls),
(209,552,o),
(231,579,o),
(290,579,cs),
(352,579,o),
(379,549,o),
(379,480,cs),
(379,56,ls),
(379,11,o),
(403,-11,o),
(451,-11,cs),
(502,-11,o),
(523,9,o),
(523,56,cs),
(523,480,ls),
(523,552,o),
(546,579,o),
(607,579,cs),
(669,579,o),
(693,552,o),
(693,480,cs),
(693,56,ls),
(693,11,o),
(717,-11,o),
(765,-11,cs),
(816,-11,o),
(837,9,o),
(837,56,cs),
(837,482,ls),
(837,631,o),
(761,711,o),
(619,711,cs),
(554,711,o),
(494,683,o),
(450,631,c),
(404,683,o),
(347,710,o),
(284,710,cs),
(145,710,o),
(65,626,o),
(65,481,cs),
(65,56,ls),
(65,11,o),
(89,-11,o),
(137,-11,cs)
);
}
);
width = 902;
}
);
metricLeft = "=A";
metricRight = "=|";
note = M;
unicode = 77;
},
{
color = 4;
glyphname = N;
lastChange = "2023-11-15 20:33:10 +0000";
layers = (
{
anchors = (
{
name = bottom;
pos = (338,0);
},
{
name = top;
pos = (338,700);
}
);
hints = (
{
horizontal = 1;
place = (652,72);
type = Stem;
},
{
horizontal = 1;
place = (-23,21);
target = up;
type = BottomGhost;
},
{
horizontal = 1;
place = (-24,21);
target = up;
type = BottomGhost;
},
{
place = (389,90);
type = Stem;
},
{
place = (51,90);
type = Stem;
},
{
horizontal = 1;
place = (-24,21);
target = up;
type = BottomGhost;
},
{
horizontal = 1;
place = (-23,21);
target = up;
type = BottomGhost;
},
{
horizontal = 1;
place = (724,-72);
type = Stem;
},
{
place = (277,-90);
type = Stem;
},
{
place = (615,-90);
type = Stem;
}
);
layerId = "2F065738-4B59-43EB-A5F2-FD5F277958EA";
shapes = (
{
closed = 1;
nodes = (
(190,-11,o),
(214,15,o),
(214,67,cs),
(214,452,ls),
(214,549,o),
(252,591,o),
(341,591,cs),
(427,591,o),
(462,551,o),
(462,452,cs),
(462,67,ls),
(462,15,o),
(486,-11,o),
(534,-11,cs),
(582,-11,o),
(606,15,o),
(606,67,cs),
(606,474,ls),
(606,634,o),
(519,711,o),
(341,711,cs),
(161,711,o),
(70,632,o),
(70,474,cs),
(70,67,ls),
(70,15,o),
(94,-11,o),
(142,-11,cs)
);
}
);
width = 676;
}
);
metricLeft = H;
metricRight = H;
note = N;
unicode = 78;
},
{
color = 5;
glyphname = O;
lastChange = "2023-11-15 20:30:29 +0000";
layers = (
{
anchors = (
{
name = bottom;
pos = (329,0);
},
{
name = center;
pos = (329,350);
},
{
name = ogonek;
pos = (583,0);
},
{
name = top;
pos = (329,700);
},
{
name = topleft;
pos = (16,700);
},
{
name = topright;
pos = (642,700);
}
);
hints = (
{
horizontal = 1;
place = (652,72);
type = Stem;
},
{
horizontal = 1;
place = (-24,72);
type = Stem;
},
{
place = (389,90);
type = Stem;
},
{
place = (51,90);
type = Stem;
}
);
layerId = "2F065738-4B59-43EB-A5F2-FD5F277958EA";
shapes = (
{
closed = 1;
nodes = (
(519,-11,o),
(604,100,o),
(604,351,cs),
(604,600,o),
(519,711,o),
(329,711,cs),
(139,711,o),
(54,600,o),
(54,351,cs),
(54,100,o),
(139,-11,o),
(329,-11,cs)
);
},
{
closed = 1;
nodes = (
(233,121,o),
(204,175,o),
(204,351,cs),
(204,525,o),
(233,579,o),
(329,579,cs),
(425,579,o),
(454,525,o),
(454,351,cs),
(454,175,o),
(425,121,o),
(329,121,cs)
);
}
);
width = 658;
}
);
note = O;
unicode = 79;
},
{
glyphname = P;
lastChange = "2023-11-08 20:59:27 +0000";
layers = (
{
anchors = (
{
name = bottom;
pos = (334,0);
},
{
name = top;
pos = (334,700);
}
);
hints = (
{
horizontal = 1;
place = (653,71);
type = Stem;
},
{
horizontal = 1;
place = (314,72);
type = Stem;
},
{
horizontal = 1;
place = (-24,21);
target = up;
type = BottomGhost;
},
{
place = (389,90);
type = Stem;
},
{
place = (51,90);
type = Stem;
}
);
layerId = "2F065738-4B59-43EB-A5F2-FD5F277958EA";
shapes = (
{
closed = 1;
nodes = (
(191,-11,o),
(214,8,o),
(214,45,cs),
(214,199,ls),
(214,284,o),
(243,306,o),
(357,306,cs),
(528,306,o),
(608,368,o),
(608,502,cs),
(608,648,o),
(528,711,o),
(345,711,cs),
(164,711,o),
(70,634,o),
(70,486,cs),
(70,45,ls),
(70,10,o),
(98,-11,o),
(144,-11,cs)
);
},
{
closed = 1;
nodes = (
(212,432,o),
(214,466,o),
(214,525,cs),
(214,575,o),
(255,597,o),
(346,597,cs),
(443,597,o),
(482,570,o),
(482,502,cs),
(482,438,o),
(460,427,o),
(329,427,cs),
(278,427,o),
(228,413,o),
(205,393,c)
);
}
);
width = 662;
}
);
metricLeft = H;
metricRight = O;
note = P;
unicode = 80;
},
{
glyphname = Q;
lastChange = "2023-11-08 21:02:39 +0000";
layers = (
{
anchors = (
{
name = bottom;
pos = (265,0);
},
{
name = top;
pos = (329,712);
}
);
hints = (
{
horizontal = 1;
place = (652,72);
type = Stem;
},
{
horizontal = 1;
place = (-24,72);
type = Stem;
},
{
horizontal = 1;
place = (-20,21);
target = up;
type = BottomGhost;
},
{
place = (389,90);
type = Stem;
},
{
place = (274,92);
type = Stem;
},
{
place = (51,90);
type = Stem;
}
);
layerId = "2F065738-4B59-43EB-A5F2-FD5F277958EA";
shapes = (
{
closed = 1;
nodes = (
(431,-120,ls),
(448,-134,o),
(463,-140,o),
(477,-140,cs),
(494,-140,o),
(509,-131,o),
(524,-113,cs),
(536,-98,o),
(542,-84,o),
(542,-71,cs),
(542,-54,o),
(532,-37,o),
(511,-21,cs),
(353,103,ls),
(339,114,o),
(326,119,o),
(313,119,cs),
(297,119,o),
(282,110,o),
(267,91,cs),
(253,74,o),
(246,59,o),
(246,46,cs),
(246,31,o),
(254,18,o),
(272,4,cs)
);
},
{
ref = O;
}
);
width = 658;
}
);
note = Q;
unicode = 81;
},
{
color = 4;
glyphname = R;
lastChange = "2023-11-15 20:29:16 +0000";
layers = (
{
anchors = (
{
name = bottom;
pos = (330,0);
},
{
name = top;
pos = (330,700);
}
);
background = {
shapes = (
{
closed = 0;
nodes = (
(470,45,l),
(470,18,o),
(496,-11,o),
(539,-11,cs),
(579,-11,o),
(606,13,o),
(606,45,cs)
);
}
);
};
hints = (
{
horizontal = 1;
place = (653,71);
type = Stem;
},
{
horizontal = 1;
place = (314,72);
type = Stem;
},
{
horizontal = 1;
place = (-24,21);
target = up;
type = BottomGhost;
},
{
place = (389,90);
type = Stem;
},
{
place = (51,90);
type = Stem;
}
);
layerId = "2F065738-4B59-43EB-A5F2-FD5F277958EA";
shapes = (
{
closed = 1;
nodes = (
(180,-10,o),
(210,13,o),
(210,46,cs),
(210,199,ls),
(210,286,o),
(247,320,o),
(339,320,cs),
(435,320,o),
(460,288,o),
(460,161,cs),
(460,46,ls),
(460,8,o),
(487,-11,o),
(542,-11,cs),
(581,-11,o),
(606,15,o),
(606,56,cs),
(606,235,ls),
(606,280,o),
(579,323,o),
(535,352,c),
(579,376,o),
(605,431,o),
(605,502,cs),
(605,649,o),
(526,711,o),
(339,711,cs),
(145,711,o),
(66,646,o),
(66,486,cs),
(66,46,ls),
(66,16,o),
(100,-10,o),
(139,-10,cs)
);
},
{
closed = 1;
nodes = (
(208,431,o),
(210,468,o),
(210,525,cs),
(210,573,o),
(255,597,o),
(343,597,cs),
(437,597,o),
(479,567,o),
(479,502,cs),
(479,441,o),
(453,427,o),
(343,427,cs),
(272,427,o),
(230,417,o),
(202,393,c)
);
}
);
width = 675;
}
);
note = R;
unicode = 82;
},
{
color = 4;
glyphname = S;
lastChange = "2023-11-15 21:16:33 +0000";
layers = (
{
anchors = (
{
name = bottom;
pos = (295,0);
},
{
name = top;
pos = (295,700);
}
);
background = {
shapes = (
{
closed = 1;
nodes = (
(477,-11,o),
(562,100,o),
(562,351,cs),
(562,600,o),
(477,711,o),
(287,711,cs),
(97,711,o),
(12,600,o),
(12,351,cs),
(12,100,o),
(97,-11,o),
(287,-11,cs)
);
},
{
closed = 1;
nodes = (
(191,121,o),
(162,175,o),
(162,351,cs),
(162,525,o),
(191,579,o),
(287,579,cs),
(383,579,o),
(412,525,o),
(412,351,cs),
(412,175,o),
(383,121,o),
(287,121,cs)
);
}
);
};
guides = (
{
angle = 90;
pos = (295,712);
}
);
hints = (
{
horizontal = 1;
place = (653,72);
type = Stem;
},
{
horizontal = 1;
place = (314,72);
type = Stem;
},
{
horizontal = 1;
place = (-24,72);
type = Stem;
},
{
place = (388,90);
type = Stem;
},
{
place = (51,90);
type = Stem;
}
);
layerId = "2F065738-4B59-43EB-A5F2-FD5F277958EA";
shapes = (
{
closed = 1;
nodes = (
(462,-12,o),
(544,79,o),
(544,203,cs),
(544,311,o),
(488,363,o),
(347,405,cs),
(236,438,o),
(202,471,o),
(202,514,cs),
(202,560,o),
(241,583,o),
(299,583,cs),
(409,583,o),
(382,500,o),
(463,500,cs),
(509,500,o),
(529,526,o),
(529,561,cs),
(529,637,o),
(437,711,o),
(301,711,cs),
(161,711,o),
(59,632,o),
(59,500,cs),
(59,394,o),
(121,333,o),
(268,289,cs),
(378,257,o),
(401,226,o),
(401,187,cs),
(401,135,o),
(353,118,o),
(301,117,cs),
(179,114,o),
(200,196,o),
(114,196,cs),
(74,196,o),
(52,178,o),
(52,137,cs),
(52,62,o),
(125,-12,o),
(286,-12,cs)
);
}
);
width = 588;
}
);
note = S;
unicode = 83;
},
{
color = 4;
glyphname = T;
lastChange = "2023-11-15 20:34:50 +0000";
layers = (
{
anchors = (
{
name = bottom;
pos = (296,0);
},
{
name = center;
pos = (296,350);
},
{
name = top;
pos = (296,700);
}
);
background = {
shapes = (
{
closed = 1;
nodes = (
(336,-11,o),
(376,5,o),
(376,48,cs),
(376,579,l),
(497,579,ls),
(539,579,o),
(548,613,o),
(548,640,cs),
(548,658,o),
(542,700,o),
(497,700,cs),
(203,700,ls),
(93,700,o),
(40,668,o),
(40,579,cs),
(40,540,o),
(49,443,o),
(127,443,c),
(145,443,o),
(161,460,o),
(161,478,cs),
(161,515,o),
(114,544,o),
(134,566,c),
(155,587,o),
(232,579,o),
(232,579,cs),
(232,48,ls),
(232,5,o),
(270,-11,o),
(303,-11,cs)
);
}
);
};
hints = (
{
horizontal = 1;
place = (651,73);
type = Stem;
},
{
horizontal = 1;
place = (-24,21);
target = up;
type = BottomGhost;
},
{
place = (220,91);
type = Stem;
},
{
place = (51,89);
type = Stem;
}
);
layerId = "2F065738-4B59-43EB-A5F2-FD5F277958EA";
shapes = (
{
closed = 1;
nodes = (
(340,-11,o),
(372,5,o),
(372,38,cs),
(372,578,l),
(505,578,ls),
(537,578,o),
(552,608,o),
(552,637,cs),
(552,668,o),
(536,700,o),
(505,700,cs),
(95,700,ls),
(64,700,o),
(48,668,o),
(48,637,cs),
(48,608,o),
(63,578,o),
(95,578,cs),
(242,578,l),
(228,565,o),
(228,551,o),
(228,538,cs),
(228,38,ls),
(228,3,o),
(270,-11,o),
(304,-11,cs)
);
}
);
width = 600;
}
);
note = T;
unicode = 84;
},
{
color = 4;
glyphname = U;
lastChange = "2023-11-15 20:29:10 +0000";
layers = (
{
anchors = (
{
name = bottom;
pos = (332,0);
},
{
name = ogonek;
pos = (543,10);
},
{
name = top;
pos = (332,700);
},
{
name = topright;
pos = (576,700);
}
);
hints = (
{
horizontal = 1;
place = (724,-20);
target = down;
type = TopGhost;
},
{
horizontal = 1;
place = (723,-20);
target = down;
type = TopGhost;
},
{
horizontal = 1;
place = (-24,72);
type = Stem;
},
{
place = (389,90);
type = Stem;
},
{
place = (51,90);
type = Stem;
}
);
layerId = "2F065738-4B59-43EB-A5F2-FD5F277958EA";
shapes = (
{
closed = 1;
nodes = (
(510,-11,o),
(601,71,o),
(601,232,cs),
(601,633,ls),
(601,685,o),
(577,711,o),
(529,711,cs),
(481,711,o),
(457,685,o),
(457,633,cs),
(457,228,ls),
(457,150,o),
(414,109,o),
(330,109,cs),
(248,109,o),
(209,148,o),
(209,228,cs),
(209,633,ls),
(209,685,o),
(185,711,o),
(137,711,cs),
(89,711,o),
(65,685,o),
(65,633,cs),
(65,232,ls),
(65,69,o),
(152,-11,o),
(330,-11,cs)
);
}
);
width = 666;
}
);
metricLeft = "=A";
metricRight = "=|";
note = U;
unicode = 85;
},
{
color = 5;
glyphname = V;
lastChange = "2023-11-15 21:18:46 +0000";
layers = (
{
anchors = (
{
name = bottom;
pos = (287,0);
},
{
name = top;
pos = (287,700);
}
);
background = {
shapes = (
{
closed = 1;
nodes = (
(369,-11,o),
(422,27,o),
(438,85,cs),
(584,614,ls),
(588,628,o),
(590,640,o),
(590,650,cs),
(590,685,o),
(569,705,o),
(528,710,cs),
(522,711,o),
(516,711,o),
(511,711,cs),
(472,711,o),
(454,686,o),
(435,614,cs),
(307,153,l),
(179,614,ls),
(160,686,o),
(142,711,o),
(103,711,cs),
(57,711,o),
(31,694,o),
(25,663,cs),
(24,659,o),
(24,655,o),
(24,650,cs),
(24,640,o),
(26,628,o),
(30,614,cs),
(176,85,ls),
(192,27,o),
(245,-11,o),
(307,-11,cs)
);
}
);
};
hints = (
{
horizontal = 1;
place = (724,-20);
target = down;
type = TopGhost;
},
{
horizontal = 1;
place = (-23,71);
type = Stem;
},
{
place = (388,89);
type = Stem;
},
{
place = (51,90);
type = Stem;
}
);
layerId = "2F065738-4B59-43EB-A5F2-FD5F277958EA";
shapes = (
{
closed = 1;
nodes = (
(369,-11,o),
(422,27,o),
(441,94,cs),
(584,609,ls),
(588,623,o),
(590,635,o),
(590,646,cs),
(590,692,o),
(558,706,o),
(521,706,cs),
(472,706,o),
(455,681,o),
(435,609,cs),
(318,194,ls),
(314,180,o),
(311,173,o),
(307,143,c),
(303,173,o),
(300,180,o),
(296,193,cs),
(179,609,ls),
(159,681,o),
(143,706,o),
(93,706,cs),
(52,706,o),
(24,689,o),
(24,647,cs),
(24,635,o),
(26,623,o),
(30,609,cs),
(173,94,ls),
(192,27,o),
(245,-11,o),
(307,-11,cs)
);
}
);
width = 614;
}
);
note = V;
unicode = 86;
},
{
glyphname = W;
lastChange = "2023-11-09 14:14:38 +0000";
layers = (
{
anchors = (
{
name = bottom;
pos = (434,0);
},
{
name = top;
pos = (434,700);
}
);
hints = (
{
horizontal = 1;
place = (724,-20);
target = down;
type = TopGhost;
},
{
horizontal = 1;
place = (723,-20);
target = down;
type = TopGhost;
},
{
horizontal = 1;
place = (-24,72);
type = Stem;
},
{
place = (727,89);
type = Stem;
},
{
place = (388,91);
type = Stem;
},
{
place = (51,90);
type = Stem;
}
);
layerId = "2F065738-4B59-43EB-A5F2-FD5F277958EA";
shapes = (
{
closed = 1;
nodes = (
(422,710,o),
(384,695,o),
(384,652,cs),
(384,208,ls),
(384,106,o),
(305,109,o),
(295,109,cs),
(287,109,o),
(213,109,o),
(213,208,cs),
(213,652,ls),
(213,687,o),
(184,711,o),
(142,711,cs),
(99,711,o),
(70,687,o),
(70,652,cs),
(70,219,ls),
(70,8,o),
(213,-10,o),
(289,-10,cs),
(383,-10,o),
(432,43,o),
(455,69,c),
(477,43,o),
(526,-11,o),
(624,-11,cs),
(765,-11,o),
(839,68,o),
(839,218,cs),
(839,652,ls),
(839,687,o),
(809,711,o),
(766,711,cs),
(725,711,o),
(698,688,o),
(698,652,cs),
(698,208,ls),
(698,152,o),
(661,109,o),
(612,109,cs),
(559,109,o),
(526,147,o),
(526,208,cs),
(526,652,ls),
(526,687,o),
(498,710,o),
(455,710,cs)
);
}
);
width = 867;
}
);
note = W;
unicode = 87;
},
{
color = 3;
glyphname = a;
lastChange = "2023-11-15 20:37:06 +0000";
layers = (
{
anchors = (
{
name = bottom;
pos = (262,0);
},
{
name = ogonek;
pos = (471,10);
},
{
name = top;
pos = (262,500);
}
);
background = {
shapes = (
{
closed = 1;
nodes = (
(100,511,o),
(58,511,o),
(58,450,cs),
(58,389,o),
(100,389,o),
(200,389,cs),
(331,389,o),
(343,383,o),
(343,252,cs),
(343,118,o),
(326,93,o),
(267,93,cs),
(221,93,o),
(194,121,o),
(194,159,cs),
(194,198,o),
(206,205,o),
(304,205,cs),
(321,205,o),
(338,205,o),
(355,205,c),
(355,315,l),
(288,315,ls),
(112,315,o),
(50,267,o),
(50,159,cs),
(50,41,o),
(125,-12,o),
(266,-12,cs),
(420,-12,o),
(487,63,o),
(487,236,cs),
(487,443,o),
(418,511,o),
(208,511,cs)
);
}
);
};
hints = (
{
horizontal = 1;
place = (323,63);
type = Stem;
},
{
horizontal = 1;
place = (192,64);
type = Stem;
},
{
horizontal = 1;
place = (-21,72);
type = Stem;
},
{
place = (382,90);
type = Stem;
},
{
place = (51,90);
type = Stem;
},
{
horizontal = 1;
place = (186,-72);
type = Stem;
},
{
horizontal = 1;
place = (349,-72);
type = Stem;
},
{
horizontal = 1;
place = (524,-72);
type = Stem;
},
{
place = (146,-90);
type = Stem;
},
{
place = (473,-90);
type = Stem;
},
{
horizontal = 1;
place = (323,63);
type = Stem;
},
{
horizontal = 1;
place = (192,64);
type = Stem;
},
{
horizontal = 1;
place = (-21,72);
type = Stem;
},
{
place = (378,90);
type = Stem;
},
{
place = (47,90);
type = Stem;
}
);
layerId = "2F065738-4B59-43EB-A5F2-FD5F277958EA";
shapes = (
{
closed = 1;
nodes = (
(446,-11,o),
(483,60,o),
(483,246,cs),
(483,423,o),
(464,481,o),
(310,498,cs),
(266,502,o),
(211,504,o),
(142,504,cs),
(97,504,o),
(76,471,o),
(76,435,cs),
(76,398,o),
(92,384,o),
(132,384,cs),
(184,384,o),
(221,388,o),
(263,388,cs),
(336,388,o),
(339,348,o),
(339,247,cs),
(339,104,o),
(326,95,o),
(251,95,cs),
(209,95,o),
(188,120,o),
(188,150,cs),
(188,196,o),
(205,211,o),
(290,211,cs),
(351,211,l),
(351,314,l),
(274,314,ls),
(98,314,o),
(44,268,o),
(44,150,cs),
(44,44,o),
(111,-11,o),
(253,-11,cs)
);
}
);
width = 528;
}
);
metricRight = o;
note = a;
unicode = 97;
},
{
color = 4;
glyphname = b;
lastChange = "2023-11-15 20:37:58 +0000";
layers = (
{
anchors = (
{
name = bottom;
pos = (295,0);
},
{
name = center;
pos = (295,240);
},
{
name = top;
pos = (295,480);
}
);
hints = (
{
horizontal = 1;
place = (724,-20);
target = down;
type = TopGhost;
},
{
horizontal = 1;
place = (314,72);
type = Stem;
},
{
horizontal = 1;
place = (-24,72);
type = Stem;
},
{
place = (389,90);
type = Stem;
},
{
place = (51,90);
type = Stem;
}
);
layerId = "2F065738-4B59-43EB-A5F2-FD5F277958EA";
shapes = (
{
closed = 1;
nodes = (
(456,-12,o),
(534,74,o),
(534,250,cs),
(534,423,o),
(461,512,o),
(318,512,cs),
(246,512,o),
(213,501,o),
(185,470,c),
(196,507,o),
(200,544,o),
(200,594,cs),
(200,694,ls),
(200,739,o),
(178,762,o),
(133,762,cs),
(84,762,o),
(60,739,o),
(60,694,cs),
(60,258,ls),
(60,65,o),
(127,-12,o),
(297,-12,cs)
);
},
{
closed = 1;
nodes = (
(231,108,o),
(204,149,o),
(204,250,cs),
(204,351,o),
(231,392,o),
(297,392,cs),
(363,392,o),
(390,351,o),
(390,250,cs),
(390,149,o),
(363,108,o),
(297,108,cs)
);
}
);
width = 594;
}
);
metricLeft = n;
metricRight = n;
note = b;
unicode = 98;
},
{
glyphname = c;
lastChange = "2023-11-08 15:44:00 +0000";
layers = (
{
anchors = (
{
name = bottom;
pos = (265,0);
},
{
name = top;
pos = (265,480);
}
);
background = {
shapes = (
{
closed = 1;
nodes = (
(194,291,o),
(192,372,o),
(282,372,cs),
(302,372,o),
(367,372,o),
(367,430,cs),
(367,491,o),
(310,490,o),
(296,491,cs),
(258,491,o),
(237,494,o),
(182,478,c),
(191,501,o),
(195,526,o),
(195,551,cs),
(195,681,ls),
(195,704,o),
(190,754,o),
(121,754,cs),
(63,754,o),
(50,702,o),
(50,679,cs),
(51,235,ls),
(52,9,o),
(205,-13,o),
(297,-13,cs),
(448,-13,o),
(473,84,o),
(460,121,cs),
(450,149,o),
(411,174,o),
(381,162,cs),
(329,141,o),
(355,108,o),
(287,108,cs),
(230,108,o),
(194,157,o),
(194,230,cs)
);
},
{
closed = 1;
nodes = (
(458,-12,o),
(512,95,o),
(512,240,cs),
(512,385,o),
(458,492,o),
(281,492,cs),
(104,492,o),
(50,385,o),
(50,240,cs),
(50,95,o),
(104,-12,o),
(281,-12,cs)
);
},
{
closed = 1;
nodes = (
(217,108,o),
(194,148,o),
(194,240,cs),
(194,332,o),
(217,372,o),
(281,372,cs),
(345,372,o),
(368,332,o),
(368,240,cs),
(368,148,o),
(345,108,o),
(281,108,cs)
);
}
);
};
hints = (
{
horizontal = 1;
place = (314,72);
type = Stem;
},
{
horizontal = 1;
place = (-23,72);
type = Stem;
},
{
place = (390,89);
type = Stem;
},
{
place = (51,90);
type = Stem;
}
);
layerId = "2F065738-4B59-43EB-A5F2-FD5F277958EA";
shapes = (
{
closed = 1;
nodes = (
(49,93,o),
(103,-12,o),
(273,-12,cs),
(368,-12,o),
(481,51,o),
(481,147,cs),
(481,161,o),
(470,169,o),
(439,169,cs),
(395,169,o),
(392,158,o),
(387,139,cs),
(379,111,o),
(357,108,o),
(279,108,cs),
(245,108,o),
(194,111,o),
(194,256,cs),
(194,311,o),
(202,372,o),
(285,372,cs),
(320,372,o),
(361,351,o),
(361,305,cs),
(361,305,o),
(407,270,o),
(421,270,cs),
(470,270,o),
(500,319,o),
(500,333,cs),
(500,337,o),
(499,340,o),
(498,347,cs),
(482,424,o),
(412,492,o),
(285,492,cs),
(104,492,o),
(49,391,o),
(49,244,cs)
);
}
);
width = 530;
}
);
note = c;
unicode = 99;
},
{
color = 2;
glyphname = d;
lastChange = "2023-11-15 21:32:47 +0000";
layers = (
{
anchors = (
{
name = bottom;
pos = (265,0);
},
{
name = center;
pos = (265,240);
},
{
name = top;
pos = (265,742);
},
{
name = topright;
pos = (510,742);
}
);
hints = (
{
horizontal = 1;
place = (724,-20);
target = down;
type = TopGhost;
},
{
horizontal = 1;
place = (314,72);
type = Stem;
},
{
horizontal = 1;
place = (-24,72);
type = Stem;
},
{
place = (390,90);
type = Stem;
},
{
place = (51,90);
type = Stem;
}
);
layerId = "2F065738-4B59-43EB-A5F2-FD5F277958EA";
shapes = (
{
closed = 1;
nodes = (
(444,-12,o),
(498,95,o),
(498,240,cs),
(498,676,ls),
(498,724,o),
(477,754,o),
(425,754,cs),
(373,754,o),
(353,724,o),
(353,676,cs),
(353,544,ls),
(353,485,o),
(369,422,o),
(369,422,cs),
(369,422,o),
(349,492,o),
(267,492,c),
(92,492,o),
(36,385,o),
(36,240,cs),
(36,95,o),
(90,-12,o),
(267,-12,cs)
);
},
{
closed = 1;
nodes = (
(354,148,o),
(331,108,o),
(267,108,cs),
(203,108,o),
(180,148,o),
(180,240,cs),
(180,332,o),
(203,372,o),
(267,372,cs),
(331,372,o),
(354,332,o),
(354,240,cs)
);
}
);
width = 530;
}
);
note = d;
unicode = 100;
},
{
color = 3;
glyphname = e;
lastChange = "2023-11-15 20:39:06 +0000";
layers = (
{
anchors = (
{
name = bottom;
pos = (259,0);
},
{
name = ogonek;
pos = (465,10);
},
{
name = top;
pos = (266,500);
}
);
hints = (
{
horizontal = 1;
place = (314,72);
type = Stem;
},
{
horizontal = 1;
place = (151,72);
type = Stem;
},
{
horizontal = 1;
place = (-24,72);
type = Stem;
},
{
place = (377,90);
type = Stem;
},
{
place = (50,90);
type = Stem;
},
{
horizontal = 1;
place = (177,-63);
type = Stem;
},
{
horizontal = 1;
place = (308,-64);
type = Stem;
},
{
horizontal = 1;
place = (521,-72);
type = Stem;
},
{
place = (145,-90);
type = Stem;
},
{
place = (476,-90);
type = Stem;
}
);
layerId = "2F065738-4B59-43EB-A5F2-FD5F277958EA";
shapes = (
{
closed = 1;
nodes = (
(453,-11,o),
(474,-2,o),
(474,50,cs),
(474,102,o),
(453,111,o),
(332,111,cs),
(198,111,o),
(189,120,o),
(189,248,cs),
(189,377,o),
(203,407,o),
(265,407,cs),
(309,407,o),
(338,381,o),
(338,341,cs),
(338,301,o),
(324,295,o),
(228,295,cs),
(211,295,o),
(194,295,o),
(177,295,c),
(177,185,l),
(244,185,ls),
(420,185,o),
(482,233,o),
(482,341,cs),
(482,459,o),
(407,512,o),
(266,512,cs),
(112,512,o),
(45,437,o),
(45,264,cs),
(45,57,o),
(114,-11,o),
(324,-11,cs)
);
}
);
width = 517;
}
);
metricLeft = o;
note = e;
unicode = 101;
},
{
color = 5;
glyphname = f;
lastChange = "2023-11-15 21:30:08 +0000";
layers = (
{
annotations = (
{
pos = (372.218,623.419);
type = Text;
}
);
background = {
anchors = (
{
name = bottom;
pos = (576,0);
},
{
name = top;
pos = (576,742);
}
);
shapes = (
{
closed = 1;
nodes = (
(233,-11,o),
(255,13,o),
(255,68,cs),
(255,501,ls),
(255,600,o),
(278,640,o),
(334,640,cs),
(411,640,o),
(400,584,o),
(444,584,cs),
(514,584,o),
(537,651,o),
(488,711,cs),
(446,762,o),
(372,761,o),
(324,761,cs),
(186,761,o),
(115,664,o),
(115,520,cs),
(115,68,ls),
(115,46,o),
(124,-11,o),
(182,-11,cs)
);
},
{
closed = 1;
nodes = (
(118,379,l),
(118,500,l),
(92,500,ls),
(50,500,o),
(24,480,o),
(24,439,cs),
(24,399,o),
(50,379,o),
(92,379,cs)
);
},
{
closed = 1;
nodes = (
(295,379,ls),
(337,379,o),
(363,399,o),
(363,439,cs),
(363,480,o),
(337,500,o),
(295,500,cs),
(244,500,l),
(232,379,l)
);
}
);
};
hints = (
{
horizontal = 1;
place = (652,73);
type = Stem;
},
{
horizontal = 1;
place = (315,73);
type = Stem;
},
{
horizontal = 1;
place = (-24,21);
target = up;
type = BottomGhost;
},
{
place = (51,90);
type = Stem;
}
);
layerId = "2F065738-4B59-43EB-A5F2-FD5F277958EA";
shapes = (
{
closed = 1;
nodes = (
(233,-11,o),
(255,13,o),
(255,68,cs),
(255,379,l),
(295,379,ls),
(339,379,o),
(363,400,o),
(363,439,cs),
(363,478,o),
(339,500,o),
(295,500,cs),
(255,500,l),
(255,511,ls),
(255,625,o),
(261,635,o),
(337,635,cs),
(403,635,o),
(427,650,o),
(427,693,cs),
(427,736,o),
(397,762,o),
(349,762,cs),
(185,762,o),
(115,690,o),
(115,520,cs),
(115,500,l),
(92,500,ls),
(48,500,o),
(24,478,o),
(24,439,cs),
(24,400,o),
(48,379,o),
(92,379,cs),
(115,379,l),
(115,68,ls),
(115,23,o),
(144,-11,o),
(182,-11,cs)
);
}
);
width = 363;
}
);
note = f;
unicode = 102;
},
{
color = 5;
glyphname = g;
lastChange = "2023-11-15 21:19:13 +0000";
layers = (
{
anchors = (
{
name = bottom;
pos = (282,-258);
},
{
name = top;
pos = (282,480);
}
);
background = {
shapes = (
{
closed = 1;
nodes = (
(432,-262,o),
(507,-199,o),
(507,-67,cs),
(507,0,o),
(484,48,o),
(436,78,c),
(485,116,o),
(507,174,o),
(507,260,cs),
(507,429,o),
(431,512,o),
(275,512,cs),
(121,512,o),
(45,429,o),
(45,260,cs),
(45,98,o),
(121,18,o),
(275,18,cs),
(340,18,o),
(363,-4,o),
(363,-67,cs),
(363,-121,o),
(339,-142,o),
(275,-142,cs),
(224,-142,o),
(195,-121,o),
(195,-84,cs),
(195,-49,o),
(172,-31,o),
(128,-31,cs),
(75,-31,o),
(49,-48,o),
(49,-84,cs),
(49,-193,o),
(118,-262,o),
(275,-262,cs)
);
},
{
closed = 1;
nodes = (
(214,138,o),
(189,173,o),
(189,260,cs),
(189,354,o),
(214,392,o),
(275,392,cs),
(338,392,o),
(363,355,o),
(363,260,cs),
(363,172,o),
(338,138,o),
(275,138,cs)
);
},
{
closed = 1;
nodes = (
(401,404,o),
(440,432,o),
(493,432,cs),
(559,432,o),
(583,450,o),
(583,500,cs),
(583,544,o),
(553,572,o),
(506,572,cs),
(452,572,o),
(418,544,o),
(397,481,c),
(401,365,l)
);
}
);
};
hints = (
{
place = (389,90);
type = Stem;
},
{
place = (314,72);
type = Stem;
},
{
place = (51,90);
type = Stem;
},
{
place = (-24,72);
type = Stem;
},
{
place = (-362,72);
type = Stem;
}
);
layerId = "2F065738-4B59-43EB-A5F2-FD5F277958EA";
shapes = (
{
closed = 1;
nodes = (
(415,-230,o),
(507,-175,o),
(507,-60,cs),
(507,6,o),
(485,48,o),
(436,78,c),
(485,116,o),
(507,173,o),
(507,262,cs),
(507,429,o),
(430,512,o),
(276,512,cs),
(122,512,o),
(45,430,o),
(45,263,cs),
(45,98,o),
(120,18,o),
(275,18,cs),
(331,18,o),
(363,-9,o),
(363,-55,cs),
(363,-96,o),
(323,-112,o),
(219,-112,cs),
(104,-112,o),
(77,-122,o),
(77,-167,cs),
(77,-220,o),
(101,-230,o),
(224,-230,cs)
);
},
{
closed = 1;
nodes = (
(213,138,o),
(189,173,o),
(189,263,cs),
(189,354,o),
(214,392,o),
(276,392,cs),
(338,392,o),
(363,354,o),
(363,263,cs),
(363,173,o),
(339,138,o),
(276,138,cs)
);
},
{
closed = 1;
nodes = (
(401,404,o),
(440,432,o),
(493,432,cs),
(557,432,o),
(583,450,o),
(583,496,cs),
(583,545,o),
(554,572,o),
(504,572,cs),
(452,572,o),
(418,543,o),
(397,481,c),
(401,365,l)
);
}
);
width = 583;
}
);
metricLeft = o;
note = g;
unicode = 103;
},
{
color = 5;
glyphname = h;
lastChange = "2023-11-15 21:16:48 +0000";
layers = (
{
anchors = (
{
name = bottom;
pos = (305,0);
}
);
background = {
shapes = (
{
pos = (10,0);
ref = n;
}
);
};
hints = (
{
horizontal = 1;
place = (724,-20);
target = down;
type = TopGhost;
},
{
horizontal = 1;
place = (313,71);
type = Stem;
},
{
horizontal = 1;
place = (-20,21);
target = up;
type = BottomGhost;
},
{
horizontal = 1;
place = (-24,21);
target = up;
type = BottomGhost;
},
{
place = (387,90);
type = Stem;
},
{
place = (51,90);
type = Stem;
},
{
horizontal = 1;
place = (314,72);
type = Stem;
},
{
horizontal = 1;
place = (-22,21);
target = up;
type = BottomGhost;
},
{
horizontal = 1;
place = (-23,21);
target = up;
type = BottomGhost;
},
{
place = (344,90);
type = Stem;
},
{
place = (13,90);
type = Stem;
}
);
layerId = "2F065738-4B59-43EB-A5F2-FD5F277958EA";
shapes = (
{
closed = 1;
nodes = (
(194,-11,o),
(214,15,o),
(214,57,cs),
(214,293,ls),
(214,347,o),
(240,392,o),
(302,392,cs),
(364,392,o),
(390,347,o),
(390,293,cs),
(390,57,ls),
(390,15,o),
(410,-11,o),
(462,-11,cs),
(514,-11,o),
(534,15,o),
(534,57,cs),
(534,289,ls),
(534,446,o),
(438,512,o),
(316,512,cs),
(268,512,o),
(225,502,o),
(189,470,c),
(207,501,o),
(215,533,o),
(215,573,cs),
(215,676,ls),
(215,724,o),
(195,754,o),
(143,754,cs),
(91,754,o),
(70,724,o),
(70,676,cs),
(70,57,ls),
(70,15,o),
(90,-11,o),
(142,-11,cs)
);
}
);
width = 604;
}
);
note = h;
unicode = 104;
},
{
glyphname = i;
lastChange = "2023-11-14 19:08:25 +0000";
layers = (
{
anchors = (
{
name = bottom;
pos = (141,0);
}
);
hints = (
{
horizontal = 1;
place = (547,39);
type = Stem;
},
{
horizontal = 1;
place = (448,40);
type = Stem;
},
{
horizontal = 1;
place = (-21,21);
target = up;
type = BottomGhost;
},
{
place = (166,41);
type = Stem;
},
{
place = (84,90);
type = Stem;
},
{
place = (50,42);
type = Stem;
}
);
layerId = "2F065738-4B59-43EB-A5F2-FD5F277958EA";
shapes = (
{
closed = 1;
nodes = (
(191,594,o),
(228,630,o),
(228,677,cs),
(228,726,o),
(191,762,o),
(141,762,cs),
(91,762,o),
(54,726,o),
(54,677,cs),
(54,630,o),
(91,594,o),
(141,594,cs)
);
},
{
closed = 1;
nodes = (
(193,-12,o),
(213,14,o),
(213,56,cs),
(213,444,ls),
(213,486,o),
(193,512,o),
(141,512,cs),
(89,512,o),
(69,486,o),
(69,444,cs),
(69,56,ls),
(69,14,o),
(89,-12,o),
(141,-12,cs)
);
}
);
width = 282;
}
);
note = i;
unicode = 105;
},
{
glyphname = j;
lastChange = "2023-11-15 21:31:43 +0000";
layers = (
{
guides = (
{
angle = 90;
pos = (156,678);
}
);
layerId = "2F065738-4B59-43EB-A5F2-FD5F277958EA";
shapes = (
{
closed = 1;
nodes = (
(176,-261,o),
(228,-170,o),
(228,-19,cs),
(228,433,ls),
(228,478,o),
(208,512,o),
(156,512,cs),
(112,512,o),
(88,488,o),
(88,433,cs),
(88,-10,ls),
(88,-124,o),
(82,-134,o),
(6,-134,cs),
(-60,-134,o),
(-84,-149,o),
(-84,-192,cs),
(-84,-235,o),
(-54,-261,o),
(-6,-261,cs)
);
},
{
closed = 1;
nodes = (
(206,594,o),
(243,630,o),
(243,677,cs),
(243,726,o),
(206,762,o),
(156,762,cs),
(106,762,o),
(69,726,o),
(69,677,cs),
(69,630,o),
(106,594,o),
(156,594,cs)
);
}
);
width = 297;
}
);
metricRight = i;
unicode = 106;
},
{
glyphname = l;
lastChange = "2023-11-15 21:32:12 +0000";
layers = (
{
layerId = "2F065738-4B59-43EB-A5F2-FD5F277958EA";
shapes = (
{
closed = 1;
nodes = (
(184,-12,o),
(204,14,o),
(204,56,cs),
(204,694,ls),
(204,736,o),
(184,762,o),
(132,762,cs),
(80,762,o),
(60,736,o),
(60,694,cs),
(60,56,ls),
(60,14,o),
(80,-12,o),
(132,-12,cs)
);
}
);
width = 264;
}
);
metricLeft = n;
metricRight = n;
unicode = 108;
},
{
color = 5;
glyphname = m;
lastChange = "2023-11-15 21:16:48 +0000";
layers = (
{
hints = (
{
horizontal = 1;
place = (313,72);
type = Stem;
},
{
horizontal = 1;
place = (-21,21);
target = up;
type = BottomGhost;
},
{
horizontal = 1;
place = (-22,21);
target = up;
type = BottomGhost;
},
{
place = (638,89);
type = Stem;
},
{
place = (343,92);
type = Stem;
},
{
place = (51,91);
type = Stem;
}
);
layerId = "2F065738-4B59-43EB-A5F2-FD5F277958EA";
shapes = (
{
closed = 1;
nodes = (
(180,-11,o),
(204,11,o),
(204,57,cs),
(204,292,ls),
(204,354,o),
(235,391,o),
(286,391,cs),
(337,391,o),
(368,354,o),
(368,292,cs),
(368,57,ls),
(368,11,o),
(392,-11,o),
(440,-11,cs),
(488,-11,o),
(512,11,o),
(512,57,cs),
(512,292,ls),
(512,354,o),
(543,391,o),
(594,391,cs),
(645,391,o),
(676,354,o),
(676,292,cs),
(676,57,ls),
(676,11,o),
(700,-11,o),
(748,-11,cs),
(796,-11,o),
(820,11,o),
(820,57,cs),
(820,288,ls),
(820,439,o),
(753,511,o),
(612,511,cs),
(526,511,o),
(466,483,o),
(440,429,c),
(414,483,o),
(354,511,o),
(268,511,cs),
(127,511,o),
(60,439,o),
(60,288,cs),
(60,57,ls),
(60,11,o),
(84,-11,o),
(132,-11,cs)
);
}
);
width = 880;
}
);
metricLeft = n;
metricRight = n;
note = m;
unicode = 109;
},
{
color = 5;
glyphname = n;
lastChange = "2023-11-15 21:16:48 +0000";
layers = (
{
anchors = (
{
name = bottom;
pos = (292,0);
},
{
name = top;
pos = (292,480);
}
);
background = {
shapes = (
{
ref = o;
}
);
};
hints = (
{
horizontal = 1;
place = (314,72);
type = Stem;
},
{
horizontal = 1;
place = (-22,21);
target = up;
type = BottomGhost;
},
{
horizontal = 1;
place = (-23,21);
target = up;
type = BottomGhost;
},
{
place = (382,90);
type = Stem;
},
{
place = (51,90);
type = Stem;
}
);
layerId = "2F065738-4B59-43EB-A5F2-FD5F277958EA";
shapes = (
{
closed = 1;
nodes = (
(184,-11,o),
(204,15,o),
(204,57,cs),
(204,292,ls),
(204,346,o),
(230,391,o),
(292,391,cs),
(354,391,o),
(380,346,o),
(380,292,cs),
(380,57,ls),
(380,15,o),
(400,-11,o),
(452,-11,cs),
(504,-11,o),
(524,15,o),
(524,57,cs),
(524,288,ls),
(524,445,o),
(435,511,o),
(292,511,cs),
(149,511,o),
(60,445,o),
(60,288,cs),
(60,57,ls),
(60,15,o),
(80,-11,o),
(132,-11,cs)
);
}
);
width = 584;
}
);
note = n;
unicode = 110;
},
{
color = 5;
glyphname = o;
lastChange = "2023-11-15 21:16:48 +0000";
layers = (
{
anchors = (
{
name = bottom;
pos = (276,0);
},
{
name = center;
pos = (276,240);
},
{
name = ogonek;
pos = (510,10);
},
{
name = top;
pos = (276,480);
},
{
name = topright;
pos = (549,480);
}
);
hints = (
{
horizontal = 1;
place = (314,72);
type = Stem;
},
{
horizontal = 1;
place = (-26,72);
type = Stem;
},
{
place = (377,90);
type = Stem;
},
{
place = (50,90);
type = Stem;
}
);
layerId = "2F065738-4B59-43EB-A5F2-FD5F277958EA";
shapes = (
{
closed = 1;
nodes = (
(453,-11,o),
(507,100,o),
(507,250,cs),
(507,400,o),
(453,511,o),
(276,511,cs),
(99,511,o),
(45,400,o),
(45,250,cs),
(45,100,o),
(99,-11,o),
(276,-11,cs)
);
},
{
closed = 1;
nodes = (
(212,109,o),
(189,152,o),
(189,250,cs),
(189,348,o),
(212,391,o),
(276,391,cs),
(340,391,o),
(363,348,o),
(363,250,cs),
(363,152,o),
(340,109,o),
(276,109,cs)
);
}
);
width = 552;
}
);
note = o;
unicode = 111;
},
{
color = 5;
glyphname = r;
lastChange = "2023-11-15 21:16:48 +0000";
layers = (
{
hints = (
{
horizontal = 1;
place = (315,72);
type = Stem;
},
{
horizontal = 1;
place = (-24,21);
target = up;
type = BottomGhost;
},
{
place = (51,92);
type = Stem;
}
);
layerId = "2F065738-4B59-43EB-A5F2-FD5F277958EA";
shapes = (
{
closed = 1;
nodes = (
(180,-11,o),
(204,11,o),
(204,57,cs),
(204,264,ls),
(204,347,o),
(231,371,o),
(326,371,cs),
(392,371,o),
(416,389,o),
(416,439,cs),
(416,482,o),
(386,509,o),
(339,509,cs),
(270,509,o),
(227,488,o),
(200,440,c),
(200,490,o),
(180,511,o),
(132,511,cs),
(84,511,o),
(60,489,o),
(60,443,cs),
(60,57,ls),
(60,11,o),
(84,-11,o),
(132,-11,cs)
);
}
);
width = 416;
}
);
metricLeft = n;
note = r;
unicode = 114;
},
{
color = 5;
glyphname = s;
lastChange = "2023-11-15 21:16:48 +0000";
layers = (
{
anchors = (
{
name = bottom;
pos = (269,0);
},
{
name = top;
pos = (269,480);
}
);
background = {
anchors = (
{
name = bottom;
pos = (269,0);
},
{
name = top;
pos = (269,480);
}
);
annotations = (
{
pos = (8,-111);
type = Text;
}
);
shapes = (
{
pos = (-17,0);
ref = o;
}
);
};
hints = (
{
horizontal = 1;
place = (314,72);
type = Stem;
},
{
horizontal = 1;
place = (151,72);
type = Stem;
},
{
horizontal = 1;
place = (-24,71);
type = Stem;
},
{
place = (378,90);
type = Stem;
},
{
place = (50,90);
type = Stem;
}
);
layerId = "2F065738-4B59-43EB-A5F2-FD5F277958EA";
shapes = (
{
closed = 1;
nodes = (
(395,-13,o),
(470,52,o),
(470,150,cs),
(470,223,o),
(428,266,o),
(289,302,cs),
(212,322,o),
(188,338,o),
(188,368,cs),
(188,392,o),
(211,402,o),
(248,402,cs),
(336,402,o),
(333,344,o),
(401,344,cs),
(445,344,o),
(464,368,o),
(464,396,cs),
(464,454,o),
(383,511,o),
(263,511,cs),
(142,511,o),
(54,454,o),
(54,354,cs),
(54,278,o),
(105,231,o),
(235,197,cs),
(316,175,o),
(336,158,o),
(336,135,cs),
(336,105,o),
(304,96,o),
(265,95,cs),
(160,92,o),
(181,153,o),
(107,153,cs),
(62,153,o),
(48,132,o),
(48,103,cs),
(48,45,o),
(106,-13,o),
(247,-13,cs)
);
}
);
width = 512;
}
);
note = s;
unicode = 115;
},
{
color = 5;
glyphname = t;
lastChange = "2023-11-15 21:16:48 +0000";
layers = (
{
anchors = (
{
name = bottom;
pos = (205,0);
},
{
name = center;
pos = (205,250);
},
{
name = top;
pos = (205,500);
},
{
name = topright;
pos = (390,750);
}
);
hints = (
{
horizontal = 1;
place = (724,-20);
target = down;
type = TopGhost;
},
{
horizontal = 1;
place = (314,72);
type = Stem;
},
{
horizontal = 1;
place = (-25,73);
type = Stem;
},
{
place = (51,90);
type = Stem;
}
);
layerId = "2F065738-4B59-43EB-A5F2-FD5F277958EA";
shapes = (
{
closed = 1;
nodes = (
(368,-12,o),
(398,14,o),
(398,57,cs),
(398,100,o),
(374,115,o),
(308,115,cs),
(254,115,o),
(250,118,o),
(250,158,cs),
(250,378,l),
(301,378,ls),
(343,378,o),
(369,398,o),
(369,439,cs),
(369,479,o),
(343,499,o),
(301,499,cs),
(238,499,l),
(246,515,o),
(250,542,o),
(250,561,cs),
(250,610,ls),
(250,656,o),
(223,683,o),
(178,683,cs),
(136,683,o),
(106,651,o),
(106,608,cs),
(106,499,l),
(80,499,ls),
(38,499,o),
(12,479,o),
(12,439,cs),
(12,398,o),
(38,378,o),
(80,378,cs),
(106,378,l),
(106,169,ls),
(106,54,o),
(140,-12,o),
(300,-12,cs)
);
}
);
width = 410;
}
);
note = t;
unicode = 116;
},
{
color = 5;
glyphname = u;
lastChange = "2023-11-15 21:16:48 +0000";
layers = (
{
anchors = (
{
name = bottom;
pos = (289,0);
},
{
name = top;
pos = (289,480);
}
);
hints = (
{
horizontal = 1;
place = (-24,72);
type = Stem;
},
{
horizontal = 1;
place = (-2,21);
target = up;
type = BottomGhost;
},
{
place = (380,92);
type = Stem;
},
{
place = (51,90);
type = Stem;
},
{
horizontal = 1;
origin = (0,20);
place = (511,-72);
type = Stem;
},
{
horizontal = 1;
origin = (0,20);
target = down;
type = TopGhost;
},
{
horizontal = 1;
origin = (0,20);
target = down;
type = TopGhost;
},
{
origin = (0,20);
place = (132,-90);
type = Stem;
},
{
origin = (0,20);
place = (132,-90);
type = Stem;
}
);
layerId = "2F065738-4B59-43EB-A5F2-FD5F277958EA";
shapes = (
{
closed = 1;
nodes = (
(440,-11,o),
(518,65,o),
(518,212,cs),
(518,433,ls),
(518,485,o),
(494,511,o),
(446,511,cs),
(398,511,o),
(374,485,o),
(374,433,cs),
(374,208,ls),
(374,146,o),
(342,109,o),
(289,109,cs),
(236,109,o),
(204,146,o),
(204,208,cs),
(204,433,ls),
(204,485,o),
(180,511,o),
(132,511,cs),
(84,511,o),
(60,485,o),
(60,433,cs),
(60,212,ls),
(60,65,o),
(138,-11,o),
(289,-11,cs)
);
}
);
width = 578;
}
);
metricLeft = n;
metricRight = n;
note = u;
unicode = 117;
},
{
color = 5;
glyphname = v;
lastChange = "2023-11-15 21:16:48 +0000";
layers = (
{
layerId = "2F065738-4B59-43EB-A5F2-FD5F277958EA";
shapes = (
{
closed = 1;
nodes = (
(295,-11,o),
(312,6,o),
(331,49,cs),
(493,414,ls),
(499,428,o),
(501,438,o),
(501,447,cs),
(501,490,o),
(458,510,o),
(422,510,cs),
(390,510,o),
(370,494,o),
(360,465,cs),
(261,178,ls),
(258,169,o),
(254,162,o),
(251,140,c),
(248,162,o),
(246,168,o),
(243,177,cs),
(155,466,ls),
(147,494,o),
(126,511,o),
(93,511,cs),
(57,511,o),
(14,491,o),
(14,445,cs),
(14,435,o),
(16,425,o),
(20,414,cs),
(159,55,ls),
(178,6,o),
(197,-11,o),
(246,-11,cs)
);
}
);
width = 515;
}
);
unicode = 118;
},
{
color = 8;
glyphname = a.ss01;
lastChange = "2023-11-15 20:26:24 +0000";
layers = (
{
layerId = "2F065738-4B59-43EB-A5F2-FD5F277958EA";
shapes = (
{
closed = 1;
nodes = (
(499,-11,o),
(536,60,o),
(536,246,cs),
(536,473,o),
(512,508,o),
(297,508,cs),
(193,508,o),
(116,453,o),
(116,380,c),
(116,349,o),
(134,321,o),
(165,321,cs),
(184,321,o),
(210,327,o),
(210,345,cs),
(210,363,o),
(222,380,o),
(264,380,cs),
(323,380,o),
(355,385,o),
(392,411,c),
(392,307,l),
(327,307,ls),
(155,307,o),
(105,243,o),
(105,150,cs),
(105,44,o),
(164,-11,o),
(306,-11,cs)
);
},
{
closed = 1;
nodes = (
(241,196,o),
(258,211,o),
(343,211,cs),
(392,211,l),
(389,102,o),
(383,95,o),
(304,95,cs),
(262,95,o),
(241,120,o),
(241,150,cs)
);
}
);
width = 600;
}
);
},
{
color = 0;
glyphname = fi;
lastChange = "2023-11-15 21:28:51 +0000";
layers = (
{
anchors = (
{
name = bottom;
pos = (474,0);
}
);
background = {
shapes = (
{
closed = 1;
nodes = (
(233,-11,o),
(255,13,o),
(255,68,cs),
(255,379,l),
(399,379,l),
(399,56,ls),
(399,14,o),
(419,-12,o),
(471,-12,cs),
(523,-12,o),
(543,14,o),
(543,56,cs),
(543,444,ls),
(543,479,o),
(524,500,o),
(475,500,cs),
(255,500,l),
(255,511,ls),
(255,625,o),
(261,635,o),
(337,635,cs),
(414,635,o),
(393,594,o),
(474,594,cs),
(524,594,o),
(561,630,o),
(561,677,cs),
(561,726,o),
(524,762,o),
(349,762,cs),
(167,762,o),
(115,671,o),
(115,520,cs),
(115,500,l),
(92,500,ls),
(50,500,o),
(24,480,o),
(24,439,cs),
(24,399,o),
(50,379,o),
(92,379,cs),
(115,379,l),
(115,68,ls),
(115,46,o),
(124,-11,o),
(182,-11,cs)
);
}
);
};
hints = (
{
horizontal = 1;
place = (652,73);
type = Stem;
},
{
horizontal = 1;
place = (315,73);
type = Stem;
},
{
horizontal = 1;
place = (-24,21);
target = up;
type = BottomGhost;
},
{
place = (51,90);
type = Stem;
},
{
horizontal = 1;
place = (547,39);
type = Stem;
},
{
horizontal = 1;
place = (448,40);
type = Stem;
},
{
horizontal = 1;
place = (-21,21);
target = up;
type = BottomGhost;
},
{
place = (499,41);
type = Stem;
},
{
place = (417,90);
type = Stem;
},
{
place = (383,42);
type = Stem;
}
);
layerId = "2F065738-4B59-43EB-A5F2-FD5F277958EA";
shapes = (
{
closed = 1;
nodes = (
(233,-11,o),
(255,13,o),
(255,68,cs),
(255,382,l),
(419,382,l),
(419,56,ls),
(419,14,o),
(439,-12,o),
(491,-12,cs),
(543,-12,o),
(563,14,o),
(563,56,cs),
(563,444,ls),
(563,479,o),
(544,500,o),
(495,500,cs),
(255,500,l),
(255,511,ls),
(255,629,o),
(288,639,o),
(337,639,cs),
(434,639,o),
(400,594,o),
(480,594,cs),
(540,594,o),
(576,630,o),
(576,677,cs),
(576,726,o),
(540,762,o),
(379,762,cs),
(178,762,o),
(115,685,o),
(115,520,cs),
(115,500,l),
(92,500,ls),
(50,500,o),
(24,480,o),
(24,439,cs),
(24,399,o),
(50,382,o),
(92,382,cs),
(115,382,l),
(115,68,ls),
(115,46,o),
(124,-11,o),
(182,-11,cs)
);
}
);
width = 630;
}
);
metricLeft = f;
metricRight = i;
unicode = 64257;
},
{
glyphname = period;
lastChange = "2023-11-13 17:20:12 +0000";
layers = (
{
layerId = "2F065738-4B59-43EB-A5F2-FD5F277958EA";
shapes = (
{
closed = 1;
nodes = (
(186,-11,o),
(217,20,o),
(217,60,cs),
(217,101,o),
(186,133,o),
(145,133,cs),
(103,133,o),
(73,101,o),
(73,60,cs),
(73,20,o),
(103,-11,o),
(145,-11,cs)
);
}
);
width = 344;
}
);
unicode = 46;
},
{
glyphname = comma;
lastChange = "2023-11-08 21:13:21 +0000";
layers = (
{
layerId = "2F065738-4B59-43EB-A5F2-FD5F277958EA";
shapes = (
{
closed = 1;
nodes = (
(119,-169,ls),
(144,-169,o),
(161,-158,o),
(172,-136,cs),
(317,140,ls),
(322,149,o),
(324,156,o),
(324,163,cs),
(324,182,o),
(310,193,o),
(284,193,cs),
(184,193,ls),
(161,193,o),
(131,180,o),
(124,154,cs),
(53,-108,ls),
(50,-121,o),
(48,-132,o),
(48,-142,cs),
(48,-160,o),
(68,-169,o),
(89,-169,cs)
);
}
);
width = 386;
}
);
unicode = 44;
},
{
glyphname = exclam;
lastChange = "2023-11-14 19:48:03 +0000";
layers = (
{
layerId = "2F065738-4B59-43EB-A5F2-FD5F277958EA";
shapes = (
{
closed = 1;
nodes = (
(166,-11,o),
(196,20,o),
(196,61,cs),
(196,101,o),
(166,133,o),
(124,133,cs),
(83,133,o),
(52,101,o),
(52,61,cs),
(52,20,o),
(83,-11,o),
(124,-11,cs)
);
},
{
closed = 1;
nodes = (
(174,189,o),
(194,215,o),
(194,257,cs),
(194,643,ls),
(194,685,o),
(174,711,o),
(122,711,cs),
(70,711,o),
(50,685,o),
(50,643,cs),
(50,257,ls),
(50,215,o),
(70,189,o),
(122,189,cs)
);
}
);
width = 246;
}
);
unicode = 33;
},
{
glyphname = acutecomb;
lastChange = "2023-11-15 20:18:13 +0000";
layers = (
{
anchors = (
{
name = _top;
pos = (146,500);
},
{
name = top;
pos = (146,685);
}
);
layerId = "2F065738-4B59-43EB-A5F2-FD5F277958EA";
shapes = (
{
closed = 1;
nodes = (
(229,592,ls),
(252,599,o),
(261,615,o),
(254,640,cs),
(250,654,ls),
(241,678,o),
(223,685,o),
(200,674,cs),
(74,611,ls),
(55,602,o),
(44,590,o),
(46,571,cs),
(49,547,o),
(69,541,o),
(94,548,cs)
);
}
);
width = 300;
}
);
unicode = 769;
},
{
glyphname = macroncomb;
lastChange = "2023-11-08 15:44:00 +0000";
layers = (
{
anchors = (
{
name = _top;
pos = (206,687);
},
{
name = top;
pos = (206,791);
}
);
hints = (
{
horizontal = 1;
place = (710,81);
type = Stem;
},
{
place = (50,312);
type = Stem;
}
);
layerId = "2F065738-4B59-43EB-A5F2-FD5F277958EA";
shapes = (
{
closed = 1;
nodes = (
(317,710,ls),
(340,710,o),
(362,726,o),
(362,750,cs),
(362,774,o),
(340,791,o),
(317,791,cs),
(95,791,ls),
(72,791,o),
(50,774,o),
(50,750,cs),
(50,726,o),
(72,710,o),
(95,710,cs)
);
}
);
width = 412;
}
);
unicode = 772;
},
{
glyphname = tilde;
lastChange = "2023-11-08 15:44:00 +0000";
layers = (
{
hints = (
{
horizontal = 1;
place = (600,121);
type = Stem;
},
{
horizontal = 1;
place = (551,72);
type = Stem;
},
{
place = (50,290);
type = Stem;
}
);
layerId = "2F065738-4B59-43EB-A5F2-FD5F277958EA";
shapes = (
{
closed = 1;
nodes = (
(295,551,o),
(340,583,o),
(340,636,cs),
(340,659,o),
(315,672,o),
(295,672,cs),
(244,672,o),
(254,633,o),
(245,623,c),
(245,623,l),
(241,623,o),
(240,634,o),
(240,636,cs),
(240,654,o),
(237,664,o),
(229,679,cs),
(213,709,o),
(175,721,o),
(145,721,cs),
(95,721,o),
(50,689,o),
(50,636,cs),
(50,613,o),
(75,600,o),
(95,600,cs),
(145,600,o),
(136,640,o),
(145,649,c),
(145,650,l),
(149,650,o),
(150,639,o),
(150,636,cs),
(150,619,o),
(153,609,o),
(161,594,cs),
(177,564,o),
(215,551,o),
(245,551,cs)
);
}
);
width = 390;
}
);
note = tilde;
unicode = 732;
},
{
glyphname = macron;
lastChange = "2023-11-08 15:44:00 +0000";
layers = (
{
hints = (
{
horizontal = 1;
place = (710,81);
type = Stem;
},
{
place = (50,312);
type = Stem;
}
);
layerId = "2F065738-4B59-43EB-A5F2-FD5F277958EA";
shapes = (
{
closed = 1;
nodes = (
(317,710,ls),
(340,710,o),
(362,726,o),
(362,750,cs),
(362,774,o),
(340,791,o),
(317,791,cs),
(95,791,ls),
(72,791,o),
(50,774,o),
(50,750,cs),
(50,726,o),
(72,710,o),
(95,710,cs)
);
}
);
width = 412;
}
);
note = macron;
unicode = 175;
},
